<?xml version="1.0" encoding="UTF-8"?>
<svg id="_图层_2" data-name="图层 2" xmlns="http://www.w3.org/2000/svg" viewBox="0 0 1173.8 278.69">
  <defs>
    <style>
      .cls-1 {
        font-family: DingTalk-Sans, 'DingTalk Sans';
        font-size: 245px;
      }
    </style>
  </defs>
  <g id="_图层_2-2" data-name=" 图层 2">
    <g id="_图层_1-2" data-name=" 图层 1-2">
      <g>
        <path d="M11.58,71.6c3.51-2.05,6.91-4.07,10.33-6.05,18.89-10.91,37.81-21.76,56.65-32.75,4.41-2.57,8.4-2.7,12.87-.07,18.31,10.73,36.73,21.28,55.1,31.92,6.54,3.79,7.44,10.43,2.13,15.8-4.62,4.68-9.28,9.33-13.96,13.95-3.98,3.94-7.77,4.47-12.66,1.68-10.48-5.98-20.83-12.18-31.39-18.02-10.66-5.89-22.11-9.6-34.21-11.21-14.88-1.98-29.36-.3-43.46,4.83-.31,.11-.64,.17-.96,.23-.05,0-.13-.09-.43-.31h0Z"/>
        <path d="M12.7,183.24c7.31,1.95,14.38,3.77,21.7,4.54,12.93,1.36,25.56,0,38-3.72,10.24-3.05,19.44-8.21,28.57-13.57,6.75-3.96,13.52-7.88,20.31-11.77,5.54-3.18,9.38-2.64,13.89,1.86,4.24,4.24,8.3,8.68,12.77,12.67,5.23,4.67,5.22,12.7-2.28,16.87-18.48,10.28-36.67,21.06-54.95,31.69-3.92,2.28-7.59,2.2-11.52-.08-21.16-12.28-42.38-24.46-63.58-36.68-.99-.57-1.93-1.2-2.9-1.81h-.01Z"/>
        <path d="M44.49,185.28c-13.84-.38-26.91-3.17-39.18-9.38-1.59-.8-2.14-1.64-1.84-3.48,3.75-22.7,12.15-43.2,28.33-60.01,1.79-1.85,3.79-3.5,5.71-5.22,.48-.42,1-1.1,1.7-.82,.77,.3,.47,1.16,.49,1.78,.42,12.94,3.57,25.14,9.71,36.59,6.85,12.76,16.39,22.97,28.64,30.67,.35,.22,.71,.44,1.06,.65,1.6,.94,1.36,1.62-.26,2.25-6.14,2.41-12.42,4.32-18.93,5.45-5.17,.89-10.39,1.38-15.45,1.53h.02Z"/>
        <path d="M.41,168.89c-.59-.82-.3-1.75-.3-2.61-.03-26.66,.02-53.31-.11-79.96-.02-3.76,1.01-5.98,4.63-7.72,23.9-11.51,48.16-12.41,72.91-3.14,.31,.12,.63,.23,.92,.39,.63,.34,1.67,.41,1.7,1.24s-.97,1.05-1.59,1.41c-10.8,6.26-21.65,12.45-32.42,18.77-13.94,8.18-24.28,19.83-32.12,33.81-6.33,11.29-10.42,23.38-12.82,36.07-.09,.49-.23,.97-.38,1.44-.04,.12-.24,.18-.41,.3h-.01Z"/>
      </g>
    </g>
    <text class="cls-1" transform="translate(160 210.09)"><tspan x="0" y="0">ODEPEX</tspan></text>
  </g>
</svg>